<svg width="170" height="72" viewBox="0 0 170 72" fill="none" xmlns="http://www.w3.org/2000/svg">
<g clip-path="url(#clip0_15566_43579)">
<path fill-rule="evenodd" clip-rule="evenodd" d="M39.8066 20.7381H45.9056C49.3004 20.7381 51.0708 22.489 51.0708 24.6484C51.0708 26.1367 50.2343 27.1483 49.067 27.6736V27.7125C50.5553 28.2475 51.3918 29.4245 51.3918 30.9322C51.3918 33.0819 49.7382 34.969 46.1488 34.969H39.8066V20.7381ZM45.7111 26.3799C46.7227 26.3799 47.1799 25.8643 47.1799 25.2904C47.1799 24.7165 46.7227 24.1815 45.7111 24.1815H43.9213V26.3701H45.7111V26.3799ZM45.7694 31.5256C46.8394 31.5256 47.355 31.01 47.355 30.3486C47.355 29.6871 46.82 29.1716 45.7889 29.1716H43.9213V31.5256H45.7694ZM52.2672 29.1813V20.7381H56.4208V29.1424C56.4208 30.728 57.199 31.5645 58.5316 31.5645C59.8642 31.5645 60.7008 30.728 60.7008 29.123V20.7381H64.8738V29.1813C64.8738 32.7609 62.4711 35.3387 58.5316 35.3387C54.5921 35.3387 52.2672 32.7609 52.2672 29.1813ZM75.457 21.4287V25.0861C74.5621 24.4539 73.0349 24.0162 71.7996 24.0162C70.6712 24.0162 70.107 24.3761 70.107 24.8527C70.107 25.3293 70.7393 25.5725 71.8579 25.9811C73.7645 26.6522 76.3519 27.5471 76.3519 30.5723C76.3519 33.2765 74.3092 35.2803 70.7296 35.2803C68.8814 35.2803 67.1888 34.7453 66.1383 34.0449V30.193C67.1694 31.0295 68.7258 31.7007 70.2335 31.7007C71.5077 31.7007 72.1011 31.224 72.1011 30.689C72.1011 29.9984 71.1284 29.6969 69.9708 29.2786C68.4437 28.7241 66.0313 27.732 66.0313 24.9694C66.0216 22.4792 67.9865 20.4365 71.4883 20.4365C73.0349 20.4365 74.4259 20.8353 75.457 21.4287ZM77.4122 20.7381H81.5657V34.969H77.4122V20.7381ZM96.3317 34.9788H92.3727L87.2464 27.3429H87.227V34.9788H83.2874V20.7381H87.2464L92.3727 28.2475H92.3921V20.7381H96.3317V34.9788ZM98.0534 20.7381H107.888V24.4344H102.207V26.1464H107.314V29.5023H102.207V31.2727H107.888V34.969H98.0534V20.7381ZM118.306 21.4287V25.0861C117.411 24.4539 115.883 24.0162 114.648 24.0162C113.52 24.0162 112.956 24.3761 112.956 24.8527C112.956 25.3293 113.588 25.5725 114.706 25.9811C116.613 26.6522 119.2 27.5471 119.2 30.5723C119.2 33.2765 117.158 35.2803 113.578 35.2803C111.73 35.2803 110.037 34.7453 108.987 34.0449V30.193C110.018 31.0295 111.574 31.7007 113.082 31.7007C114.356 31.7007 114.95 31.224 114.95 30.689C114.95 29.9984 113.977 29.6969 112.819 29.2786C111.292 28.7241 108.88 27.732 108.88 24.9694C108.87 22.4792 110.835 20.4365 114.337 20.4365C115.883 20.4365 117.274 20.8353 118.306 21.4287ZM129.297 21.4287V25.0861C128.402 24.4539 126.875 24.0162 125.64 24.0162C124.512 24.0162 123.947 24.3761 123.947 24.8527C123.947 25.3293 124.58 25.5725 125.698 25.9811C127.605 26.6522 130.192 27.5471 130.192 30.5723C130.192 33.2765 128.15 35.2803 124.57 35.2803C122.722 35.2803 121.029 34.7453 119.979 34.0449V30.193C121.01 31.0295 122.566 31.7007 124.074 31.7007C125.348 31.7007 125.941 31.224 125.941 30.689C125.941 29.9984 124.969 29.6969 123.811 29.2786C122.284 28.7241 119.872 27.732 119.872 24.9694C119.862 22.4792 121.827 20.4365 125.329 20.4365C126.875 20.4365 128.266 20.8353 129.297 21.4287ZM48.9211 51.2622H53.0746V37.0312H48.9211V51.2622ZM67.8406 37.0312H63.8913V44.5406H63.8719L58.7456 37.0312H54.7866V51.2622H58.7359V43.6263H58.7553L63.8816 51.2622H67.8406V37.0312ZM74.5329 36.7199C71.0311 36.7199 69.0662 38.7627 69.0662 41.2528C69.0662 44.0154 71.4883 45.0076 73.0057 45.562C74.173 45.9803 75.136 46.2818 75.136 46.9725C75.136 47.5075 74.5426 47.9841 73.2684 47.9841C71.7607 47.9841 70.2043 47.3129 69.1732 46.4764V50.3284C70.2237 51.0287 71.9163 51.5637 73.7645 51.5637C77.3441 51.5637 79.3868 49.5599 79.3868 46.8557C79.3868 43.8306 76.7994 42.9259 74.8928 42.2645C73.7645 41.8657 73.1419 41.6322 73.1419 41.1361C73.1419 40.64 73.7158 40.2996 74.8345 40.2996C76.0698 40.2996 77.597 40.7373 78.4919 41.3696V37.7121C77.4608 37.1188 76.0698 36.7199 74.5329 36.7199ZM80.3595 51.2622H84.5131V37.0312H80.3595V51.2622ZM90.3786 47.5075H91.1762C93.326 47.5075 94.717 46.2916 94.717 44.1516C94.717 42.0116 93.326 40.7762 91.1762 40.7762H90.3786V47.5075ZM98.9191 44.1516C98.9191 48.4413 95.68 51.2622 91.0303 51.2622H86.2251V37.0312H91.0303C95.68 37.0312 98.9191 39.8716 98.9191 44.1516ZM100.038 51.2622H109.872V47.5658H104.191V45.7955H109.298V42.4396H104.191V40.7276H109.872V37.0312H100.038V51.2622ZM116.409 43.7527C117.459 43.7527 118.276 43.2566 118.276 42.2645C118.276 41.2723 117.459 40.7762 116.389 40.7762H115.514V43.7527H116.409ZM123.208 51.2622H118.315L115.611 46.8655H115.514V51.2622H111.36V37.0312H116.428C119.988 37.0312 122.469 38.6168 122.469 41.9824C122.469 43.315 121.875 45.2605 119.512 46.2526L123.208 51.2622Z" fill="#0A0A0A"/>
</g>
<defs>
<clipPath id="clip0_15566_43579">
<rect width="90.4634" height="31.1272" fill="white" transform="translate(39.7683 20.4365)"/>
</clipPath>
</defs>
</svg>
