<svg width="227" height="72" viewBox="0 0 227 72" fill="none" xmlns="http://www.w3.org/2000/svg">
<g clip-path="url(#clip0_15566_43583)">
<path d="M23.2862 42.3577L25.5758 41.9897V20.8928L23 20.5248L23.1227 18.2761H39.068L38.7 24.6543L35.511 24.5725L35.3065 20.5657H30.4003V30.0511H32.5672L33.0578 27.8842L35.3065 27.9251V34.4668H33.0987L32.5672 32.2181H30.4003V42.2759H35.3474L35.7972 37.9012L39.1498 38.0238L39.3951 44.6881H23.1635L23.2862 42.3577Z" fill="#01010F"/>
<path d="M40.8669 44.7293L40.9487 42.7668L42.7476 42.3989V29.1111L40.6625 28.9066V26.9033L45.8958 26.1673L46.3047 27.3121V28.0481C47.5721 26.7397 49.0849 25.9629 51.0474 25.9629C53.9094 25.9629 55.9945 27.6801 55.9945 31.1145V42.3989L57.9162 42.7668L57.7526 44.7293H51.5789V32.0548C51.5789 30.215 50.9247 29.1928 49.2893 29.1928C48.7169 29.1928 48.3489 29.3155 47.8992 29.4382C47.613 29.6426 47.3677 30.0106 47.1633 30.2968V42.3989L49.044 42.7668L48.9213 44.7293C48.8805 44.7293 40.8669 44.7293 40.8669 44.7293Z" fill="#01010F"/>
<path d="M140.873 44.7293L140.955 42.7668L142.753 42.3989V29.1111L140.668 28.9066V26.9033L145.902 26.1673L146.311 27.3121V28.0481C147.578 26.7397 149.091 25.9629 151.053 25.9629C153.915 25.9629 156 27.6801 156 31.1145V42.3989L157.922 42.7668L157.799 44.7293H151.626V32.0548C151.626 30.215 150.971 29.1928 149.336 29.1928C148.764 29.1928 148.396 29.3155 147.946 29.4382C147.66 29.6426 147.414 30.0106 147.21 30.2968V42.3989L149.091 42.7668L148.968 44.7293H140.873Z" fill="#01010F"/>
<path d="M67.7286 44.3612C66.9927 44.6474 65.7252 45.0154 64.008 45.0154C61.8002 45.0154 59.715 44.0341 59.715 40.7633V29.07L57.6299 28.7429L57.7117 26.4125L60.083 26.2898L61.1051 22.7328L64.1307 22.6101V26.4125H67.4424L67.1971 28.7429L64.2124 29.07V40.7224C64.2124 41.7036 64.744 42.3169 65.7252 42.3169H67.5242L67.7286 44.3612Z" fill="#01010F"/>
<path d="M191.653 44.7291L191.734 42.8075L193.411 42.4395V29.1109L191.407 28.9064V26.903L196.804 26.1671L197.172 27.4754V27.8843C198.603 26.8213 200.525 26.1262 202.814 26.1262L203.632 26.8213L203.06 31.8093L200.075 31.6866L199.789 28.9882C199.094 29.1109 198.44 29.2744 197.867 29.6833V42.3986L199.748 42.7666L199.625 44.6882L191.653 44.7291Z" fill="#01010F"/>
<path d="M113.684 44.7291L113.766 42.8075L115.442 42.4395V29.1109L113.439 28.9064V26.903L118.835 26.1671L119.203 27.4754V27.8843C120.634 26.8213 122.556 26.1262 124.846 26.1262L125.663 26.8213L125.091 31.8093L122.106 31.6866L121.82 28.9882C121.125 29.1109 120.471 29.2744 119.899 29.6833V42.3986L121.779 42.7666L121.657 44.6882L113.684 44.7291Z" fill="#01010F"/>
<path d="M69.0778 44.7291L69.1596 42.8075L70.8359 42.4395V29.1109L68.8325 28.9064V26.903L74.2294 26.1671L74.5974 27.4754V27.8843C76.0284 26.8213 77.95 26.1262 80.2396 26.1262L81.0573 26.8213L80.4849 31.8093L77.5002 31.6866L77.214 28.9882C76.519 29.1109 75.8648 29.2744 75.2924 29.6833V42.3986L77.1732 42.7666L77.0505 44.6882L69.0778 44.7291Z" fill="#01010F"/>
<path d="M86.2088 36.634C86.2088 39.8231 87.5989 42.2762 90.3382 42.2762C91.7283 42.2762 92.8731 41.99 94.2224 41.3767L94.9583 43.1348C93.6091 44.1978 91.6466 45.0564 89.1526 45.0564C84.3281 45.0564 81.5479 40.8861 81.5479 35.5301C81.5479 30.9509 83.5512 25.9629 89.1117 25.9629C93.9362 25.9629 95.776 30.4194 95.776 35.4074L95.3263 36.5931L86.2088 36.634ZM86.127 34.4671L91.6875 34.2218C91.5648 32.0139 91.1151 28.4978 88.9481 28.4978C88.4166 28.4978 88.0486 28.5796 87.3945 28.9475C86.495 30.4603 86.127 33.1996 86.127 34.4671Z" fill="#01010F"/>
<path d="M163.155 36.634C163.155 39.8231 164.545 42.2762 167.285 42.2762C168.716 42.2762 169.82 41.99 171.169 41.3767L171.905 43.1348C170.556 44.1978 168.593 45.0564 166.099 45.0564C161.275 45.0564 158.494 40.8861 158.494 35.5301C158.494 30.9509 160.498 25.9629 166.058 25.9629C170.883 25.9629 172.723 30.4194 172.723 35.4074L172.273 36.5931L163.155 36.634ZM163.074 34.4671L168.634 34.2218C168.511 32.0139 168.062 28.4978 165.895 28.4978C165.363 28.4978 164.995 28.5796 164.341 28.9475C163.442 30.4603 163.033 33.1996 163.074 34.4671Z" fill="#01010F"/>
<path d="M130.815 36.634C130.815 39.8231 132.205 42.2762 134.944 42.2762C136.375 42.2762 137.479 41.99 138.828 41.3767L139.564 43.1348C138.215 44.1978 136.253 45.0564 133.759 45.0564C128.934 45.0564 126.154 40.8861 126.154 35.5301C126.154 30.9509 128.157 25.9629 133.718 25.9629C138.542 25.9629 140.382 30.4194 140.382 35.4074L139.891 36.5931L130.815 36.634ZM130.733 34.4671L136.294 34.2218C136.171 32.0139 135.721 28.4978 133.554 28.4978C133.023 28.4978 132.655 28.5796 132.001 28.9475C131.101 30.4603 130.733 33.1996 130.733 34.4671Z" fill="#01010F"/>
<path d="M185.193 44.7292L184.743 43.1347C183.516 44.2795 182.331 44.9745 180.491 44.9745C177.629 44.9745 175.094 43.5435 175.094 39.6185V28.5794L173.009 28.375V26.6169L179.019 25.9219L179.469 27.5164V39.0461C179.469 41.0495 180.286 42.1125 181.922 42.1125C182.372 42.1125 182.985 42.0716 183.516 41.8263C183.803 41.5401 184.089 41.1722 184.334 40.8042V28.6203L182.167 28.4159V26.6578L188.259 25.9628L188.75 27.5573V42.3987L190.63 42.7667L190.426 44.7292H185.193Z" fill="#01010F"/>
<path d="M104.771 42.3578C103.79 42.3578 103.054 42.1943 102.44 41.8672V30.1331C102.686 29.7651 103.013 29.3971 103.299 29.0701C103.871 28.8656 104.362 28.7839 104.934 28.7839C107.428 28.7839 107.837 31.3188 107.837 35.8162C107.837 40.15 107.183 41.3357 107.02 41.8263C106.365 42.1943 105.67 42.3578 104.771 42.3578ZM112.171 34.9985C112.171 29.3971 110.495 25.9219 106.406 25.9219C103.667 25.9219 102.359 27.5164 101.827 28.1706V27.5573L101.377 25.9628L95.9805 26.6987V28.6203L98.0656 28.9065V51.4753L96.3076 51.8433L96.2258 53.724H104.198L104.321 51.8433L102.44 51.4753V44.3203C103.176 44.7292 104.239 45.0154 105.425 45.0154C112.13 45.0154 112.171 38.1466 112.171 34.9985Z" fill="#01010F"/>
<path d="M202.487 42.1533C203.387 42.1533 203.959 42.6848 203.959 43.4617C203.959 44.2385 203.346 44.77 202.487 44.77C201.588 44.77 201.015 44.2385 201.015 43.4617C201.015 42.6848 201.629 42.1533 202.487 42.1533ZM202.487 44.3203C203.1 44.3203 203.509 43.9523 203.509 43.4208C203.509 42.8893 203.1 42.5213 202.487 42.5213C201.874 42.5213 201.465 42.8893 201.465 43.4208C201.465 43.9523 201.874 44.3203 202.487 44.3203ZM201.833 44.0341V43.8705L201.997 43.8296V43.0119H201.833V42.8484H202.528C202.814 42.8484 203.1 42.9301 203.1 43.2163C203.1 43.4208 202.978 43.5025 202.855 43.5843C202.937 43.707 203.06 43.8296 203.1 43.8705H203.223V44.0341H202.855C202.732 43.9523 202.61 43.7887 202.528 43.5843H202.405V43.8296L202.569 43.8705V44.0341H201.833ZM202.405 43.0119V43.339H202.528C202.692 43.339 202.732 43.2572 202.732 43.1755C202.732 43.0119 202.61 43.0119 202.487 43.0119H202.405Z" fill="#01010F"/>
</g>
<defs>
<clipPath id="clip0_15566_43583">
<rect width="181" height="35.4477" fill="white" transform="translate(23 18.2761)"/>
</clipPath>
</defs>
</svg>
