<svg width="227" height="72" viewBox="0 0 227 72" fill="none" xmlns="http://www.w3.org/2000/svg">
<path d="M51.0679 25.8093H45.8889L32.7195 36.08V25.8093H29.4043V46.8464H32.7195V40.0217L37.9698 35.9135L47.7567 46.8464H52.2338L40.5791 33.9029L51.0679 25.8093Z" fill="#202D60"/>
<path d="M62.79 25.0002C57.3216 25.0002 51.4209 29.3028 51.4209 36.2583C51.4209 42.2383 56.6276 47.2944 62.79 47.2944C68.9524 47.2944 74.1869 42.2939 74.1869 36.1473C74.1869 30.0008 69.0754 25.0002 62.79 25.0002ZM71.0819 36.1751C71.0819 40.7037 67.3623 44.3837 62.79 44.3837C58.2178 44.3837 54.5259 40.664 54.5259 36.2583C54.5259 31.8527 58.2337 27.9109 62.79 27.9109C67.3464 27.9109 71.0819 31.6187 71.0819 36.1751Z" fill="#202D60"/>
<path d="M88.7252 42.1314L81.5516 25.8093H77.0547V46.8464H80.1755V30.3617L87.4404 46.8464H90.0655L97.2709 30.3736V46.8464H100.392V25.8093H95.8988L88.7252 42.1314Z" fill="#202D60"/>
<path d="M113.172 25.8093L102.35 46.8464H106.058L108.691 41.604H121.154L123.76 46.8464H127.491L116.701 25.8093H113.172ZM110.237 38.5664L114.936 29.1404L119.636 38.5664H110.237Z" fill="#202D60"/>
<path d="M147.918 41.6952L133.547 25.8093H129.446V46.8464H132.65V29.5528L148.16 46.8464H151.233V25.8093H147.918V41.6952Z" fill="#202D60"/>
<path d="M164.271 25.8093H155.63V46.8464H163.497C167.106 46.8464 175.501 45.8035 175.501 36.1474C175.501 29.6717 171.306 25.8093 164.275 25.8093H164.271ZM163.882 43.8088H158.945V28.8469H164.271C167.205 28.8469 172.126 29.7867 172.126 36.0642C172.126 42.3416 167.645 43.8088 163.882 43.8088Z" fill="#202D60"/>
<path d="M189.25 25.0002C183.781 25.0002 177.885 29.3028 177.885 36.2583C177.885 42.2383 183.091 47.2944 189.25 47.2944C195.408 47.2944 200.647 42.2939 200.647 36.1473C200.647 30.0008 195.535 25.0002 189.25 25.0002ZM197.546 36.1751C197.546 40.7037 193.826 44.3837 189.25 44.3837C184.674 44.3837 180.986 40.664 180.986 36.2583C180.986 31.8527 184.694 27.9109 189.25 27.9109C193.806 27.9109 197.546 31.6187 197.546 36.1751Z" fill="#202D60"/>
<path d="M200.254 27.8909C200.254 26.7885 201.142 25.9121 202.233 25.9121C203.323 25.9121 204.212 26.7885 204.212 27.8909C204.212 28.9933 203.335 29.8697 202.233 29.8697C201.13 29.8697 200.254 28.9814 200.254 27.8909ZM200.551 27.8909C200.551 28.8149 201.297 29.5723 202.233 29.5723C203.169 29.5723 203.914 28.8149 203.914 27.8909C203.914 26.9669 203.157 26.2095 202.233 26.2095C201.309 26.2095 200.551 26.955 200.551 27.8909ZM202.185 28.1328H201.793V29.029H201.475V26.7607H202.399C202.8 26.7607 203.137 27.0304 203.137 27.4507C203.137 27.9544 202.689 28.1209 202.558 28.1209L203.165 29.025H202.772L202.185 28.1288V28.1328ZM201.793 27.0423V27.8433H202.399C202.613 27.8433 202.812 27.6847 202.812 27.4507C202.812 27.1969 202.617 27.0383 202.399 27.0383H201.793V27.0423Z" fill="#202D60"/>
</svg>
