<svg width="204" height="72" viewBox="0 0 204 72" fill="none" xmlns="http://www.w3.org/2000/svg">
<g clip-path="url(#clip0_15566_43550)">
<path d="M43 45.3613C43 37.6913 48.1133 34.9773 53.738 34.9773C56.1373 34.9773 58.458 35.3706 59.6773 35.882L59.7953 41.2313H59.2447L55.98 36.0786C55.39 35.8033 54.8787 35.7246 53.856 35.7246C50.8667 35.7246 49.3327 39.186 49.372 44.8893C49.4113 51.694 50.5913 54.762 53.384 54.762C54.092 54.762 54.6427 54.6833 55.036 54.4866V47.21L53.1873 46.148V45.558H62.0373V46.2266L60.228 47.21V54.408C58.0818 55.1718 55.8194 55.5578 53.5413 55.5486C47.13 55.5486 43 52.52 43 45.3613Z" fill="black"/>
<path d="M99.1681 40.2871L99.6401 40.3264V44.6531H99.7581C100.387 41.5064 101.803 40.3264 103.495 40.3264C103.77 40.3264 104.085 40.3264 104.242 40.4051V44.8104C103.967 44.7318 103.455 44.7318 103.023 44.7318C101.685 44.7318 100.663 44.9678 99.7974 45.3611V53.8964L101.135 54.6438V55.1944H93.4648V54.6438L94.8414 53.8571V42.2931L93.2288 41.8211V41.4278L99.1288 40.3264L99.1681 40.2871Z" fill="black"/>
<path d="M86.3454 46.6198V44.6924C86.3454 41.7818 85.716 40.7984 83.9067 40.7984L83.2774 40.8771L80.052 45.2038H79.6194V41.2311C80.996 40.7984 82.7267 40.2871 85.008 40.2871C88.9414 40.2871 91.2227 41.3884 91.2227 44.6531V54.0931L92.6387 54.4864V54.8798C92.088 55.1944 90.9867 55.5091 89.7674 55.5091C87.8007 55.5091 86.896 54.8798 86.4634 53.8178H86.306C85.5194 54.9191 84.3394 55.5484 82.4907 55.5484C80.1307 55.5484 78.5574 54.0931 78.5574 51.6151C78.5574 49.1371 80.052 47.7998 83.12 47.2098L86.306 46.5804L86.3454 46.6198ZM86.3454 53.1491V47.3278L85.362 47.4064C83.7887 47.5244 83.2774 48.5078 83.2774 50.6711C83.2774 53.0311 84.064 53.6604 85.126 53.6604C85.716 53.6604 86.07 53.4638 86.3454 53.1491Z" fill="black"/>
<path d="M61.6836 41.7818V41.3491L67.5836 40.2871L68.2523 40.3658V52.0084C68.2523 53.4244 68.9209 53.8571 70.0616 53.8571C70.8089 53.8571 71.4776 53.5818 71.9889 52.9524V42.4898L70.3763 41.7818V41.3491L76.2763 40.2871L76.9056 40.3264V53.6998L78.4789 54.3684V54.7618L72.6183 55.5091L72.0283 55.4698V53.6998H71.8709C70.6745 54.8529 69.0876 55.513 67.4263 55.5484C64.5943 55.5484 63.2963 53.8964 63.2963 51.3398V42.4898L61.6836 41.7818Z" fill="black"/>
<path d="M145.857 53.8966V42.2933L144.205 41.7426V41.1526L150.105 40.0906H150.695V41.8999H150.892C152.15 40.7593 154.038 40.0513 155.926 40.0513C158.483 40.0513 159.624 41.2313 159.624 43.9846V53.8573L161 54.6439V55.1946H153.33V54.6439L154.707 53.8573V44.2599C154.707 42.7653 154.038 42.1753 152.819 42.1753C152.032 42.1753 151.403 42.3719 150.813 42.8046V53.9359L152.15 54.6833V55.2339H144.441V54.6833L145.857 53.8966Z" fill="black"/>
<path d="M127.174 40.2478L127.724 40.3265V53.8965L129.062 54.6438V55.1945H121.392V54.6438L122.768 53.8572V42.4505L121.116 41.8212V41.3492L127.213 40.2478H127.174ZM127.764 36.5898C127.764 38.0452 126.544 39.1072 125.128 39.1072C124.791 39.1177 124.455 39.0604 124.141 38.9386C123.826 38.8168 123.539 38.6331 123.297 38.3983C123.055 38.1635 122.862 37.8824 122.731 37.5717C122.6 37.261 122.532 36.9271 122.532 36.5898C122.532 35.1738 123.673 34.0725 125.128 34.0725C126.544 34.0725 127.764 35.1738 127.764 36.5898Z" fill="black"/>
<path d="M137.321 46.6198V44.6924C137.321 41.7818 136.653 40.7984 134.883 40.7984L134.253 40.8771L131.028 45.2038H130.595V41.2311C131.972 40.7984 133.703 40.2871 135.984 40.2871C139.917 40.2871 142.199 41.3884 142.199 44.6531V54.0931L143.615 54.4864V54.8798C143.064 55.1944 141.963 55.5091 140.704 55.5091C138.737 55.5091 137.833 54.8798 137.4 53.8178H137.282C136.495 54.9191 135.315 55.5484 133.467 55.5484C131.107 55.5484 129.533 54.0931 129.533 51.6151C129.533 49.1371 131.028 47.8391 134.135 47.2491L137.282 46.6198H137.321ZM137.321 53.1491V47.3278L136.338 47.4064C134.765 47.5244 134.214 48.5078 134.214 50.6711C134.214 53.0311 135.001 53.6604 136.102 53.6604C136.692 53.6604 137.046 53.4638 137.282 53.1491H137.321Z" fill="black"/>
<path d="M114.036 40.6412V36.0785L112.424 35.5278V35.1345L118.402 34.0725L118.992 34.1512V53.6998L120.644 54.2898V54.8012L114.744 55.5878L114.272 55.5092V53.9358H114.115C113.607 54.463 112.995 54.8787 112.318 55.1563C111.641 55.434 110.913 55.5675 110.182 55.5485C106.996 55.5485 104.636 53.1098 104.636 48.0752C104.636 42.7652 107.389 40.2085 111.519 40.2085C112.699 40.2085 113.604 40.4052 114.036 40.6412ZM114.036 53.1492V41.5065C113.643 41.2705 113.368 40.9558 112.384 40.9952C110.811 41.0738 109.788 43.4732 109.788 47.7605C109.788 51.6152 110.536 53.7785 112.66 53.6998C113.25 53.6998 113.722 53.4638 114.036 53.1885V53.1492Z" fill="black"/>
<path d="M69.7866 37.8092L71.832 36.7472V20.8566H70.2586L66.6006 25.8126H66.168L66.404 20.3059H82.6486L82.8846 25.8126H82.334L78.7153 20.8566H77.142V36.7079L79.1873 37.7699V38.3599H69.7866V37.8486V37.8092Z" fill="black"/>
<path d="M84.4571 37.1012V19.4799L82.8838 18.8505V18.5359L88.5871 17.5132H89.1771V25.8519L89.3345 25.6945C90.5931 24.5932 92.4025 23.9245 94.2118 23.9245C96.6898 23.9245 97.7911 25.3012 97.7911 27.9365V37.1012L99.1285 37.8092V38.3598H91.6945V37.8092L93.0318 37.1012V27.8972C93.0318 26.4418 92.4025 25.8912 91.2225 25.8912C90.5148 25.8738 89.8219 26.0955 89.2558 26.5205V37.1405L90.5538 37.8485V38.3598H83.0805V37.8485L84.4571 37.0618V37.1012Z" fill="black"/>
<path d="M103.455 31.6733C103.613 34.584 104.911 36.826 108.018 36.826C109.513 36.826 110.575 36.1573 111.558 35.646V36.1966C110.811 37.2586 108.844 38.7533 106.13 38.7533C101.331 38.7533 98.8533 36.0786 98.8533 31.4766C98.8533 26.9533 101.528 24.1606 105.894 24.1606C109.945 24.1606 112.069 26.206 112.069 31.5553V31.6733H103.455ZM103.377 31.0046L107.625 30.7686C107.625 27.15 106.995 24.7506 105.737 24.7506C104.439 24.7506 103.377 27.504 103.377 31.044V31.0046Z" fill="black"/>
</g>
<defs>
<clipPath id="clip0_15566_43550">
<rect width="118" height="39.3333" fill="white" transform="translate(43 16.3333)"/>
</clipPath>
</defs>
</svg>
