<svg width="344" height="72" viewBox="0 0 344 72" fill="none" xmlns="http://www.w3.org/2000/svg">
<g clip-path="url(#clip0_15566_43525)">
<path d="M50.138 25.6L47.265 43.904C47.2584 43.9568 47.2319 44.0052 47.1908 44.039C47.1497 44.0729 47.0971 44.0897 47.044 44.086H33.004C32.9508 44.0897 32.8983 44.0729 32.8572 44.039C32.8161 44.0052 32.7895 43.9568 32.783 43.904L29.65 25.6C29.6463 25.5688 29.6493 25.5373 29.6587 25.5074C29.6681 25.4775 29.6838 25.45 29.7047 25.4266C29.7256 25.4032 29.7513 25.3846 29.7799 25.3719C29.8086 25.3592 29.8396 25.3528 29.871 25.353H38.854C38.886 25.3504 38.9181 25.3552 38.9479 25.3671C38.9777 25.379 39.0044 25.3977 39.0258 25.4216C39.0472 25.4455 39.0628 25.4741 39.0713 25.505C39.0798 25.536 39.0811 25.5685 39.075 25.6L39.816 36.468C39.8224 36.522 39.8484 36.5717 39.8892 36.6077C39.93 36.6437 39.9826 36.6634 40.037 36.663H40.245C40.3001 36.663 40.353 36.6411 40.3921 36.6021C40.4311 36.563 40.453 36.5101 40.453 36.455L41.116 25.6C41.1176 25.5726 41.1247 25.5459 41.1367 25.5213C41.1487 25.4967 41.1654 25.4747 41.186 25.4566C41.2065 25.4385 41.2304 25.4246 41.2563 25.4157C41.2822 25.4069 41.3096 25.4032 41.337 25.405H49.93C49.983 25.4049 50.034 25.425 50.0726 25.4612C50.1113 25.4975 50.1347 25.5471 50.138 25.6Z" fill="#DA232E"/>
<path d="M69.5604 44.086H61.6304C61.5919 44.0861 61.5539 44.0766 61.5199 44.0585C61.4859 44.0403 61.4568 44.0141 61.4354 43.982L58.2504 39.211C58.2248 39.1733 58.1882 39.1444 58.1456 39.1283C58.103 39.1122 58.0564 39.1097 58.0123 39.121C57.9682 39.1324 57.9286 39.1572 57.8991 39.1919C57.8696 39.2266 57.8516 39.2696 57.8474 39.315V43.865C57.8474 43.9236 57.8241 43.9798 57.7827 44.0213C57.7412 44.0627 57.685 44.086 57.6264 44.086H50.2034C50.1744 44.086 50.1457 44.0803 50.1188 44.0692C50.092 44.0581 50.0677 44.0418 50.0472 44.0213C50.0266 44.0007 50.0104 43.9764 49.9992 43.9496C49.9881 43.9228 49.9824 43.894 49.9824 43.865V25.6C49.9857 25.5437 50.0105 25.4907 50.0516 25.4521C50.0927 25.4134 50.147 25.3919 50.2034 25.392H58.3544C58.3948 25.3905 58.4347 25.4007 58.4693 25.4215C58.504 25.4423 58.5318 25.4727 58.5494 25.509L61.5004 30.54C61.523 30.5827 61.5589 30.6168 61.6028 30.6371C61.6466 30.6574 61.6958 30.6629 61.743 30.6525C61.7902 30.6422 61.8327 30.6167 61.864 30.58C61.8953 30.5432 61.9137 30.4972 61.9164 30.449V25.6C61.9197 25.5437 61.9445 25.4907 61.9856 25.4521C62.0267 25.4134 62.081 25.3919 62.1374 25.392H69.5604C69.6169 25.3919 69.6712 25.4134 69.7123 25.4521C69.7534 25.4907 69.7781 25.5437 69.7814 25.6V43.865C69.7814 43.9236 69.7581 43.9798 69.7167 44.0213C69.6752 44.0627 69.619 44.086 69.5604 44.086Z" fill="#DA232E"/>
<path d="M89.4122 25.6L84.1342 39.64C84.1281 39.6657 84.1281 39.6924 84.1342 39.718V43.826C84.1311 43.8836 84.1068 43.938 84.066 43.9788C84.0252 44.0196 83.9708 44.0439 83.9132 44.047H74.2152C74.1566 44.047 74.1004 44.0237 74.0589 43.9823C74.0175 43.9408 73.9942 43.8846 73.9942 43.826V39.731L68.8592 25.6C68.8465 25.5665 68.8422 25.5303 68.8467 25.4948C68.8511 25.4592 68.8641 25.4252 68.8846 25.3958C68.905 25.3664 68.9323 25.3424 68.9642 25.3258C68.996 25.3093 69.0313 25.3008 69.0672 25.301H78.0502C78.0871 25.2986 78.1241 25.3055 78.1576 25.3211C78.1912 25.3367 78.2203 25.3604 78.2423 25.3902C78.2643 25.4199 78.2785 25.4547 78.2835 25.4914C78.2886 25.5281 78.2843 25.5654 78.2712 25.6L79.0382 31.307C79.0415 31.3599 79.0649 31.4095 79.1035 31.4458C79.1422 31.482 79.1932 31.5021 79.2462 31.502C79.2735 31.5038 79.3009 31.5001 79.3268 31.4913C79.3527 31.4824 79.3767 31.4685 79.3972 31.4504C79.4177 31.4323 79.4345 31.4103 79.4465 31.3857C79.4585 31.3611 79.4655 31.3343 79.4672 31.307L80.2342 25.6C80.2403 25.5482 80.2645 25.5002 80.3025 25.4645C80.3406 25.4288 80.3901 25.4077 80.4422 25.405H89.2042C89.2563 25.4077 89.3058 25.4288 89.3438 25.4645C89.3819 25.5002 89.4061 25.5482 89.4122 25.6Z" fill="#DA232E"/>
<path d="M115.139 42.682C114.873 43.0417 114.537 43.3428 114.15 43.5665C113.763 43.7902 113.334 43.9317 112.89 43.982C110.8 43.741 108.766 43.1522 106.871 42.24C104.585 41.1488 102.125 40.4668 99.6038 40.225C98.6917 40.2355 97.7972 40.477 97.0038 40.927L97.4588 40.589C99.2528 39.289 100.943 37.989 101.359 35.389L102.438 28.564C102.594 27.576 103.062 24.586 104.83 24.586C104.989 24.5736 105.148 24.5927 105.3 24.6423C105.451 24.6918 105.591 24.7708 105.712 24.8747C105.833 24.9786 105.932 25.1054 106.004 25.2477C106.075 25.39 106.118 25.5451 106.13 25.704C106.13 26.315 105.35 26.848 104.648 26.848H104.401V26.9C104.284 27.381 104.7 27.94 104.973 28.278C105.144 28.4817 105.36 28.6437 105.603 28.7518C105.846 28.86 106.111 28.9113 106.377 28.902C107.138 28.8998 107.869 28.6061 108.42 28.0815C108.972 27.5568 109.301 26.841 109.341 26.081C109.336 25.7559 109.263 25.4355 109.126 25.1405C108.989 24.8456 108.791 24.5829 108.546 24.3695C108.301 24.1561 108.013 23.9967 107.702 23.9019C107.391 23.807 107.063 23.7788 106.741 23.819C105.623 23.8614 104.527 24.1324 103.518 24.6154C102.51 25.0983 101.611 25.783 100.878 26.627C99.3561 28.2181 98.3229 30.2123 97.9008 32.373L97.0558 37.651C96.8124 39.3279 96.059 40.8892 94.8978 42.123C94.4593 42.6466 94.0678 43.2078 93.7278 43.8V43.93L94.0138 44.06V43.969C94.1787 43.6358 94.4379 43.3584 94.7592 43.1712C95.0804 42.984 95.4496 42.8953 95.8208 42.916C98.3168 42.916 100.28 44.879 102.698 46.023C105.116 47.167 107.365 48.272 109.367 48.272C111.629 48.272 114.021 45.594 115.399 42.877L115.464 42.76L115.204 42.643L115.139 42.682Z" fill="#1C1C1B"/>
<path d="M118.454 28.7458L118.207 28.6548C117.921 29.1748 117.375 29.9548 116.907 29.9548C116.249 29.8853 115.602 29.7324 114.983 29.4998C114.186 29.1863 113.343 29.0062 112.487 28.9668C111.589 29.0201 110.714 29.266 109.92 29.6877C109.126 30.1094 108.432 30.6971 107.885 31.4108C106.694 32.7694 106.001 34.4936 105.922 36.2988C105.922 38.7298 107.053 40.1988 108.938 40.1988C110.823 40.1988 111.889 39.0418 112.903 36.4028L112.825 36.7668C112.68 37.1858 112.634 37.6326 112.69 38.0724C112.746 38.5122 112.904 38.933 113.15 39.3018C113.459 39.628 113.839 39.8786 114.261 40.0342C114.682 40.1897 115.134 40.2461 115.581 40.1988C116.347 40.2446 117.116 40.2446 117.882 40.1988V40.1208L118.012 39.9128H117.752C117.493 39.887 117.242 39.812 117.011 39.6918C116.465 39.0418 116.92 36.4418 117.011 35.5838L118.454 28.7458ZM113.748 31.6448L113.514 32.9448C113.007 35.8698 111.681 39.0028 110.537 39.0028C110.108 39.0028 109.861 38.1838 109.861 37.4038C109.861 34.1798 111.161 29.4088 113.111 29.4088C113.208 29.4005 113.305 29.4151 113.396 29.4512C113.486 29.4873 113.566 29.544 113.631 29.6168C114.034 30.0458 113.813 31.2548 113.748 31.6448Z" fill="#1C1C1B"/>
<path d="M148.378 31.8271C146.616 31.7922 144.912 32.4563 143.638 33.6743C142.364 34.8923 141.624 36.5651 141.579 38.3271C141.574 38.9769 141.703 39.6208 141.96 40.2177C142.217 40.8147 142.595 41.3516 143.071 41.7943C143.547 42.237 144.109 42.5758 144.723 42.7891C145.337 43.0024 145.989 43.0855 146.636 43.0331C148.395 43.0512 150.091 42.3819 151.364 41.1678C152.636 39.9536 153.384 38.2906 153.448 36.5331C153.454 35.8821 153.324 35.237 153.067 34.6391C152.809 34.0412 152.429 33.5036 151.952 33.0607C151.475 32.6178 150.911 32.2793 150.295 32.0669C149.68 31.8545 149.027 31.7728 148.378 31.8271ZM146.779 42.7601C145.869 42.7601 145.687 41.6941 145.687 40.8101C145.687 38.2751 146.493 32.2041 148.508 32.2041C148.976 32.2041 149.613 32.3991 149.613 34.1801C149.613 37.0791 148.755 42.7601 146.779 42.7601Z" fill="#1C1C1B"/>
<path d="M161.43 31.8271C159.611 31.8063 157.857 32.5074 156.553 33.7769C155.25 35.0463 154.502 36.7807 154.475 38.6001C154.434 39.1799 154.516 39.7618 154.716 40.3078C154.915 40.8538 155.228 41.3516 155.632 41.7687C156.037 42.1858 156.525 42.5128 157.065 42.7285C157.605 42.9441 158.184 43.0435 158.765 43.0201C160.03 42.9249 161.251 42.5192 162.322 41.8389C163.392 41.1586 164.278 40.2248 164.901 39.1201V39.0031L164.641 38.8471L164.563 38.9381C164.186 39.4301 163.71 39.838 163.166 40.1357C162.622 40.4334 162.022 40.6144 161.404 40.6671C159.636 40.6671 158.492 39.2891 158.492 37.1571C158.505 36.05 158.73 34.9557 159.155 33.9331C159.519 33.1011 160.182 32.1261 161.235 32.1261C161.391 32.1111 161.548 32.1314 161.694 32.1855C161.841 32.2396 161.974 32.3261 162.083 32.4385C162.191 32.5509 162.273 32.6864 162.322 32.8349C162.371 32.9834 162.386 33.141 162.366 33.2961C162.365 33.6162 162.259 33.9272 162.064 34.181C161.869 34.4348 161.596 34.6172 161.287 34.7001H161.196V34.8301C161.15 35.3705 161.318 35.9075 161.664 36.3251C161.833 36.498 162.036 36.6354 162.259 36.7291C162.482 36.8229 162.722 36.8711 162.964 36.8711C163.29 36.8851 163.615 36.8334 163.92 36.7191C164.226 36.6048 164.505 36.4303 164.741 36.2059C164.978 35.9816 165.167 35.7119 165.297 35.413C165.427 35.1141 165.496 34.7921 165.499 34.4661C165.499 32.5161 163.289 31.8271 161.43 31.8271Z" fill="#1C1C1B"/>
<path d="M170.427 36.3901C171.435 36.6712 172.474 36.824 173.521 36.8451C175.393 36.8451 177.278 36.0261 177.278 34.2451C177.278 32.0741 174.457 31.8401 173.248 31.8401C171.436 31.8361 169.694 32.5409 168.394 33.8041C167.094 35.0672 166.34 36.7884 166.293 38.6001C166.242 39.188 166.317 39.78 166.515 40.3361C166.712 40.8922 167.027 41.3994 167.437 41.8234C167.848 42.2474 168.345 42.5783 168.894 42.7938C169.443 43.0092 170.033 43.1041 170.622 43.0721C171.882 42.9671 173.098 42.5573 174.165 41.8779C175.231 41.1984 176.117 40.2699 176.745 39.1721V39.0551L176.485 38.8991V38.9901C175.68 39.9446 174.54 40.5542 173.3 40.6931C171.168 40.6931 170.401 38.7951 170.401 37.0141C170.388 36.802 170.388 36.5893 170.401 36.3771L170.427 36.3901ZM172.962 32.1001C173.833 32.1001 173.963 32.9061 173.963 33.4001C173.978 34.0654 173.767 34.7163 173.365 35.2461C173.102 35.5476 172.772 35.7843 172.402 35.9376C172.032 36.091 171.632 36.1568 171.233 36.1301H171.077C170.83 36.1486 170.582 36.1486 170.336 36.1301H170.44C170.7 34.2321 171.506 32.1001 172.962 32.1001Z" fill="#1C1C1B"/>
<path d="M194.102 26.5099C192.914 26.6362 191.758 26.966 190.683 27.4849L190.527 27.5629L190.748 27.7839H190.826C191.035 27.6926 191.252 27.6229 191.476 27.5759C191.516 27.5725 191.556 27.5778 191.594 27.5912C191.632 27.6047 191.667 27.626 191.697 27.6539C191.727 27.7237 191.742 27.7989 191.742 27.8749C191.742 27.9509 191.727 28.0261 191.697 28.0959L191.073 32.0999H190.995C190.536 31.9582 190.057 31.8966 189.578 31.9179C188.6 31.9214 187.638 32.1594 186.772 32.6118C185.905 33.0642 185.16 33.7179 184.599 34.5179C183.513 35.9923 182.917 37.7701 182.896 39.6009C182.896 41.8759 183.975 43.1369 185.938 43.1369C187.901 43.1369 189.097 41.7199 190.15 38.4699L189.942 39.7699C189.819 40.2091 189.795 40.6699 189.872 41.1193C189.948 41.5688 190.123 41.9958 190.384 42.3699C190.694 42.6757 191.068 42.9098 191.479 43.0558C191.89 43.2018 192.328 43.2561 192.763 43.2149C193.302 43.2351 193.842 43.2002 194.375 43.1109V43.0329L194.505 42.8379H194.245C194.193 42.7993 194.152 42.7476 194.127 42.6882C194.102 42.6288 194.093 42.5638 194.102 42.4999C193.556 41.8499 193.868 39.2109 194.024 38.3529L195.61 28.4729C195.692 28.2115 195.716 27.9351 195.68 27.6633C195.644 27.3914 195.549 27.1308 195.402 26.8999C195.227 26.7435 195.02 26.6275 194.795 26.5601C194.57 26.4927 194.334 26.4756 194.102 26.5099ZM190.462 35.7399C189.929 38.7429 188.46 42.0969 187.277 42.0969C187.16 42.0969 186.575 42.1619 186.575 40.8619C186.575 36.9619 188.395 32.3469 190.67 32.3469L191.021 32.2819L190.462 35.7399Z" fill="#1C1C1B"/>
<path d="M199.637 31.8268C198.475 31.9257 197.339 32.2294 196.283 32.7238L196.114 32.8018L196.335 33.0098H196.413C196.605 32.9266 196.805 32.8656 197.011 32.8278C197.051 32.8236 197.092 32.8284 197.13 32.8419C197.169 32.8554 197.203 32.8772 197.232 32.9058C197.272 32.9687 197.299 33.0395 197.31 33.1134C197.321 33.1873 197.317 33.2627 197.297 33.3348L196.231 39.7438C196.109 40.183 196.085 40.6438 196.161 41.0932C196.238 41.5427 196.412 41.9697 196.673 42.3438C196.942 42.6211 197.269 42.8351 197.631 42.97C197.994 43.1049 198.381 43.1575 198.766 43.1238C199.349 43.1349 199.932 43.0958 200.508 43.0068L200.625 42.7988L200.508 42.7338C199.936 42.4478 200.027 40.0298 200.248 38.7558L201.054 33.8548C201.135 33.5975 201.159 33.3254 201.123 33.058C201.087 32.7906 200.992 32.5344 200.846 32.3078C200.693 32.1432 200.505 32.0146 200.296 31.9315C200.086 31.8483 199.862 31.8125 199.637 31.8268Z" fill="#1C1C1B"/>
<path d="M200.6 26.5099C200.145 26.5385 199.706 26.6919 199.332 26.9533C198.958 27.2147 198.664 27.5741 198.481 27.9919V28.0699V28.1349C198.724 28.5745 198.852 29.0688 198.852 29.5714C198.852 30.074 198.724 30.5683 198.481 31.0079L198.312 31.2289H198.403C200.704 31.2289 202.446 29.9289 202.446 28.1999C202.445 27.9648 202.395 27.7325 202.3 27.5175C202.205 27.3025 202.066 27.1096 201.893 26.9508C201.719 26.792 201.515 26.6709 201.292 26.595C201.07 26.5192 200.834 26.4902 200.6 26.5099Z" fill="#1C1C1B"/>
<path d="M233.296 24.7549C231.203 24.7549 230.02 26.4319 229.396 30.2019L228.33 37.0659L222.558 28.8239C222.457 28.7135 222.369 28.5913 222.298 28.4599C222.186 28.5443 222.047 28.5858 221.908 28.5769C220.809 28.4748 219.748 28.1283 218.801 27.5629C217.712 26.9494 216.499 26.5895 215.252 26.5099C214.763 26.4746 214.272 26.5384 213.809 26.6973C213.345 26.8562 212.919 27.1071 212.555 27.4349C212.19 27.7626 211.896 28.1605 211.69 28.6047C211.483 29.0489 211.368 29.5302 211.352 30.0199C211.355 30.4278 211.439 30.831 211.6 31.2061C211.76 31.5812 211.994 31.9207 212.286 32.2049C212.579 32.4891 212.925 32.7124 213.305 32.8617C213.684 33.011 214.09 33.0835 214.498 33.0749C215.126 33.0627 215.732 32.8469 216.227 32.4601C216.722 32.0733 217.077 31.5363 217.241 30.9299C217.332 30.4477 217.252 29.9486 217.015 29.519C216.778 29.0894 216.398 28.7561 215.941 28.5769H215.837V28.6549C215.684 28.9038 215.479 29.1173 215.237 29.2809C214.995 29.4446 214.721 29.5547 214.433 29.6039C214.274 29.6211 214.113 29.6035 213.961 29.5523C213.809 29.5012 213.671 29.4177 213.554 29.3077C213.438 29.1976 213.347 29.0637 213.288 28.9151C213.229 28.7664 213.202 28.6067 213.211 28.4469C213.211 27.3679 214.238 26.8869 215.187 26.8869C216.367 26.9571 217.515 27.2997 218.541 27.8879C219.163 28.2087 219.811 28.4783 220.478 28.6939H220.205C219.353 28.711 218.503 28.6015 217.683 28.3689L217.566 28.5899C218.112 29.0579 218.255 30.4619 217.956 32.2559L216.786 39.1199C216.669 40.5195 216.044 41.8279 215.028 42.7979C214.013 43.768 212.677 44.3325 211.274 44.3849C210.753 44.4357 210.229 44.3689 209.738 44.1893C209.247 44.0097 208.803 43.722 208.438 43.3475C208.074 42.9729 207.798 42.5211 207.632 42.0256C207.465 41.5301 207.413 41.0035 207.478 40.4849C207.478 38.4179 208.778 36.8709 210.39 36.8709C210.585 36.8541 210.781 36.8791 210.966 36.9441C211.15 37.0091 211.319 37.1127 211.46 37.248C211.602 37.3833 211.713 37.5472 211.786 37.7287C211.859 37.9103 211.893 38.1053 211.885 38.3009C211.855 38.7516 211.648 39.1723 211.31 39.4716C210.971 39.771 210.529 39.9248 210.078 39.8999H209.987V39.9909C209.931 40.2919 209.942 40.6013 210.018 40.8976C210.095 41.194 210.235 41.4702 210.429 41.7069C210.625 41.9596 210.878 42.1629 211.167 42.3005C211.456 42.4382 211.773 42.5065 212.093 42.4999C212.451 42.5287 212.812 42.4827 213.152 42.365C213.491 42.2473 213.803 42.0604 214.067 41.816C214.331 41.5716 214.541 41.2752 214.685 40.9454C214.828 40.6156 214.902 40.2596 214.901 39.8999C214.904 39.4111 214.788 38.9289 214.561 38.4958C214.334 38.0628 214.005 37.6922 213.601 37.4169C212.755 36.8495 211.759 36.5505 210.741 36.5589C210.197 36.525 209.652 36.6033 209.139 36.7888C208.627 36.9744 208.158 37.2632 207.762 37.6374C207.366 38.0116 207.051 38.4632 206.836 38.9642C206.622 39.4652 206.513 40.0049 206.516 40.5499C206.516 43.1499 208.297 44.6969 211.404 44.6969C212.699 44.6463 213.936 44.1451 214.901 43.2799C216.087 42.1905 216.863 40.7263 217.098 39.1329L218.515 30.7999L227.615 43.7999L229.721 30.2799C230.267 26.8999 231.151 26.2499 231.801 26.2499C231.929 26.2427 232.057 26.2621 232.178 26.3067C232.298 26.3514 232.408 26.4204 232.501 26.5094C232.594 26.5984 232.667 26.7056 232.717 26.8242C232.766 26.9428 232.791 27.0704 232.789 27.1989C232.797 27.3909 232.75 27.5812 232.653 27.7472C232.556 27.9131 232.414 28.0477 232.243 28.1349H232.126V28.2519C232.217 28.5031 232.383 28.7203 232.601 28.8738C232.82 29.0273 233.081 29.1098 233.348 29.1099C233.936 29.1067 234.501 28.874 234.921 28.4613C235.341 28.0487 235.583 27.4885 235.597 26.8999C235.615 26.5999 235.566 26.2997 235.454 26.0207C235.343 25.7417 235.171 25.4908 234.951 25.2859C234.731 25.081 234.469 24.9271 234.183 24.8353C233.897 24.7435 233.594 24.7161 233.296 24.7549Z" fill="#1C1C1B"/>
<path d="M235.142 36.3901C236.15 36.6712 237.189 36.824 238.236 36.8451C240.108 36.8451 241.993 36.0261 241.993 34.2451C241.993 32.0741 239.172 31.8401 237.963 31.8401C236.15 31.8361 234.408 32.5409 233.109 33.8041C231.809 35.0672 231.055 36.7884 231.008 38.6001C230.957 39.188 231.032 39.78 231.23 40.3361C231.427 40.8922 231.742 41.3994 232.152 41.8234C232.563 42.2474 233.059 42.5783 233.609 42.7938C234.158 43.0092 234.747 43.1041 235.337 43.0721C236.635 42.9368 237.883 42.4965 238.979 41.7871C240.074 41.0777 240.987 40.1193 241.642 38.9901L241.707 38.8861L241.46 38.7301L241.382 38.8211C240.522 39.8506 239.315 40.5303 237.989 40.7321C235.857 40.7321 235.09 38.8341 235.09 37.0531C235.077 36.841 235.077 36.6283 235.09 36.4161L235.142 36.3901ZM237.833 32.1001C238.704 32.1001 238.834 32.9061 238.834 33.4001C238.849 34.0635 238.633 34.7115 238.223 35.2331C237.934 35.5414 237.579 35.7809 237.186 35.9339C236.792 36.0869 236.369 36.1495 235.948 36.1171H235.207C235.402 34.2321 236.377 32.1001 237.833 32.1001Z" fill="#1C1C1B"/>
<path d="M257.865 31.1509C257.548 31.1576 257.236 31.227 256.945 31.3549C256.655 31.4829 256.393 31.6669 256.175 31.8965C255.956 32.126 255.785 32.3966 255.671 32.6925C255.557 32.9884 255.503 33.304 255.512 33.6209C255.49 34.1124 255.656 34.5938 255.978 34.9661C256.299 35.3385 256.751 35.5735 257.241 35.6229H257.358V35.5059C257.397 35.1745 257.546 34.8659 257.782 34.6299C258.018 34.394 258.327 34.2446 258.658 34.2059C258.816 34.1964 258.974 34.2205 259.122 34.2766C259.27 34.3327 259.404 34.4195 259.516 34.5313C259.627 34.6431 259.714 34.7774 259.77 34.9252C259.826 35.073 259.85 35.2311 259.841 35.3889C259.841 38.3529 255.707 42.0969 253.809 42.0969C253.732 42.1042 253.655 42.0939 253.583 42.0669C253.511 42.0398 253.446 41.9968 253.393 41.9409C253.12 41.6289 253.185 40.8489 253.393 39.6009L254.134 35.0899C254.279 34.6488 254.333 34.1829 254.293 33.7204C254.253 33.2578 254.119 32.8083 253.9 32.3989C253.676 32.1839 253.407 32.0211 253.113 31.9222C252.818 31.8233 252.505 31.7907 252.197 31.8269C251.55 31.8159 250.904 31.842 250.26 31.9049L250 32.0999L250.169 32.1779C250.637 32.3599 250.741 33.9459 250.169 36.4159C249.415 39.4969 248.089 41.9019 247.179 41.9019C247.125 41.9039 247.07 41.8932 247.021 41.8707C246.971 41.8481 246.927 41.8143 246.893 41.7719C246.67 41.3095 246.632 40.7789 246.789 40.2899L247.868 33.7899C247.946 33.5321 247.968 33.2607 247.932 32.9938C247.896 32.727 247.803 32.4709 247.66 32.2429C247.489 32.0794 247.283 31.9578 247.058 31.8879C246.832 31.8179 246.593 31.8015 246.36 31.8399C245.012 32.0042 243.697 32.3724 242.46 32.9319L242.291 33.0099L242.512 33.2309H242.59C242.759 33.2309 243.656 32.8539 243.76 32.8539C243.802 32.8503 243.845 32.8554 243.885 32.8688C243.925 32.8822 243.962 32.9037 243.994 32.9319C244.023 32.9997 244.038 33.0726 244.038 33.1464C244.038 33.2201 244.023 33.2931 243.994 33.3609L242.98 39.4579C242.842 39.9474 242.811 40.461 242.89 40.9635C242.968 41.4661 243.154 41.9458 243.435 42.3699C243.676 42.6277 243.971 42.8282 244.3 42.9565C244.628 43.0847 244.981 43.1375 245.333 43.1109C247.257 43.1109 248.648 41.8109 249.753 38.8339L249.506 39.9389C249.372 40.3184 249.329 40.7237 249.378 41.123C249.428 41.5223 249.57 41.9046 249.792 42.2399C250.072 42.5398 250.416 42.7718 250.799 42.9183C251.182 43.0647 251.594 43.1217 252.002 43.0849C255.551 43.0849 260.439 39.0289 260.439 34.4919C260.465 32.8539 259.581 31.1509 257.865 31.1509Z" fill="#1C1C1B"/>
<path d="M273.321 42.175C272.905 41.681 273.061 40.654 273.321 39.224L273.841 35.883L277.13 30.033C278.716 27.251 280.315 25.834 281.888 25.834C282.072 25.8098 282.26 25.8255 282.437 25.8799C282.615 25.9343 282.779 26.0262 282.918 26.1494C283.058 26.2726 283.169 26.4243 283.244 26.5941C283.32 26.764 283.358 26.9481 283.357 27.134C283.372 27.3029 283.35 27.473 283.295 27.6331C283.239 27.7932 283.149 27.9396 283.033 28.0625C282.916 28.1855 282.774 28.2822 282.617 28.3462C282.46 28.4102 282.291 28.4402 282.122 28.434C281.576 28.434 281.485 27.667 281.251 27.134V27.043H281.147C280.622 27.2527 280.168 27.6096 279.84 28.0708C279.513 28.532 279.326 29.0779 279.301 29.643C279.31 29.9581 279.384 30.2679 279.518 30.5533C279.652 30.8386 279.843 31.0934 280.079 31.3019C280.316 31.5103 280.593 31.6679 280.892 31.765C281.192 31.862 281.509 31.8964 281.823 31.866C282.265 31.8526 282.7 31.7516 283.103 31.5687C283.506 31.3858 283.868 31.1247 284.17 30.8006C284.471 30.4765 284.704 30.0958 284.857 29.6806C285.01 29.2654 285.079 28.824 285.06 28.382C285.078 27.9947 285.016 27.6077 284.876 27.246C284.736 26.8843 284.522 26.5558 284.248 26.2816C283.974 26.0074 283.646 25.7936 283.284 25.6538C282.922 25.514 282.535 25.4514 282.148 25.47C279.47 25.47 277.793 28.317 276.948 29.864L272.931 36.936C273.269 33.998 272.931 30.839 271.631 29.279C271.26 28.8254 270.791 28.4614 270.26 28.2138C269.729 27.9662 269.149 27.8415 268.563 27.849C267.016 28.0284 265.558 28.6668 264.377 29.682H264.299L264.455 29.955L264.572 29.864C264.956 29.5493 265.398 29.311 265.872 29.162C267.497 29.162 269.044 33.218 269.525 36.962L269.226 38.99C268.862 41.421 267.926 42.526 265.976 42.526H265.599V42.838H275.596V42.526H275.466C274.733 42.5861 273.996 42.4656 273.321 42.175Z" fill="#1C1C1B"/>
<path d="M283.799 31.8271C282.037 31.7922 280.333 32.4563 279.059 33.6743C277.785 34.8923 277.045 36.5651 277 38.3271C276.994 38.9769 277.124 39.6208 277.381 40.2177C277.638 40.8147 278.016 41.3516 278.492 41.7943C278.967 42.237 279.53 42.5758 280.144 42.7891C280.758 43.0024 281.409 43.0855 282.057 43.0331C283.816 43.0512 285.512 42.3819 286.784 41.1678C288.057 39.9536 288.805 38.2906 288.869 36.5331C288.875 35.8821 288.745 35.237 288.487 34.6391C288.23 34.0412 287.85 33.5036 287.373 33.0607C286.896 32.6178 286.332 32.2793 285.716 32.0669C285.101 31.8545 284.448 31.7728 283.799 31.8271ZM282.07 42.7081C281.16 42.7081 280.965 41.6551 280.965 40.7581C280.965 38.2231 281.784 32.1521 283.786 32.1521C284.267 32.1521 284.891 32.3601 284.891 34.1281C284.943 37.0271 284.098 42.7081 282.122 42.7081H282.07Z" fill="#1C1C1B"/>
<path d="M299.401 31.2551C298.101 31.2551 296.034 32.2041 294.682 35.7921L295.15 33.7901C295.24 33.5441 295.274 33.2809 295.249 33.0199C295.224 32.759 295.142 32.5069 295.007 32.2821C294.829 32.1074 294.613 31.9756 294.377 31.8967C294.14 31.8179 293.889 31.7941 293.642 31.8271C292.358 31.9529 291.103 32.282 289.924 32.8021L289.755 32.8801L289.976 33.1011H290.054C290.374 32.9967 290.699 32.9099 291.029 32.8411C291.069 32.8378 291.109 32.843 291.147 32.8565C291.186 32.8699 291.22 32.8913 291.25 32.9191C291.279 32.9867 291.295 33.0598 291.295 33.1336C291.295 33.2075 291.279 33.2805 291.25 33.3481L290.106 39.7571C289.976 40.1919 289.942 40.6497 290.007 41.0988C290.072 41.5478 290.235 41.9772 290.483 42.3571C290.741 42.6235 291.057 42.8276 291.406 42.9537C291.755 43.0798 292.129 43.1248 292.498 43.0851C293.108 43.0986 293.717 43.0507 294.318 42.9421L294.526 42.7341L294.344 42.6561C293.707 42.3961 293.889 39.6531 294.149 38.4961C294.968 35.1681 297.061 32.1001 298.101 32.1001C298.764 32.1001 298.777 32.9321 298.777 33.0231C298.734 33.4063 298.542 33.7574 298.243 34.0006C297.944 34.2438 297.561 34.3596 297.178 34.3231H297.061V34.4401C297.066 35.0249 297.299 35.5844 297.711 36.0001C297.894 36.1845 298.113 36.3292 298.355 36.4254C298.596 36.5216 298.855 36.5671 299.115 36.5591C299.497 36.5731 299.879 36.5098 300.236 36.373C300.594 36.2362 300.92 36.0287 301.195 35.763C301.471 35.4972 301.69 35.1786 301.839 34.8262C301.989 34.4738 302.066 34.0949 302.066 33.7121C302.069 33.3706 302 33.0322 301.865 32.7188C301.729 32.4053 301.529 32.1238 301.278 31.8922C301.027 31.6607 300.73 31.4844 300.407 31.3747C300.084 31.265 299.741 31.2242 299.401 31.2551Z" fill="#1C1C1B"/>
<path d="M314.116 42.591C312.998 42.37 311.984 40.68 311.62 39.575C311.542 39.354 311.477 39.159 311.412 39.003C310.983 37.859 310.294 37.144 308.201 37.144C310.528 36.65 313.726 35.116 313.726 33.036C313.726 32.061 313.063 31.021 311.23 31.021C309.059 31.021 307.135 33.309 306.03 36.611L307.551 28.538C307.631 28.2856 307.655 28.0187 307.621 27.756C307.587 27.4933 307.497 27.2411 307.356 27.017C307.187 26.8491 306.982 26.7219 306.757 26.6453C306.532 26.5687 306.292 26.5446 306.056 26.575C304.742 26.7153 303.463 27.0803 302.273 27.654L302.104 27.732L302.325 27.953H302.403C302.572 27.953 303.274 27.589 303.391 27.589C303.431 27.5857 303.471 27.5909 303.51 27.6043C303.548 27.6178 303.582 27.6391 303.612 27.667C303.642 27.7368 303.657 27.812 303.657 27.888C303.657 27.964 303.642 28.0392 303.612 28.109L301.701 39.809C301.567 40.2546 301.524 40.7226 301.576 41.185C301.627 41.6474 301.771 42.0946 302 42.5C302.219 42.7186 302.485 42.8848 302.778 42.9861C303.07 43.0874 303.382 43.1212 303.69 43.085C304.368 43.0789 305.045 43.0355 305.718 42.955L305.926 42.747L305.744 42.682C305.302 42.5 305.133 40.758 305.744 38.483C306.641 35.051 308.201 32.958 309.059 32.958C309.514 32.958 309.553 33.556 309.553 33.751C309.454 34.6178 309.08 35.43 308.486 36.0687C307.891 36.7074 307.108 37.1389 306.251 37.3H306.16V37.56H306.342C306.732 37.56 306.927 38.535 307.109 39.406C307.109 39.653 307.213 39.913 307.265 40.147C307.397 41.058 307.878 41.8823 308.605 42.447C309.332 43.0117 310.249 43.273 311.165 43.176C312.141 43.1554 313.115 43.0598 314.077 42.89L314.324 42.656L314.116 42.591Z" fill="#1C1C1B"/>
<path d="M143.4 27.459C142.763 27.459 142.1 27.927 142.009 29.123C142.009 29.266 142.009 29.682 142.009 29.734V30.02C142.002 30.0499 142.002 30.0811 142.009 30.111C142.035 30.103 142.062 30.103 142.087 30.111C142.087 30.033 142.087 29.916 142.087 29.851C142.082 29.759 142.096 29.6669 142.127 29.5803C142.159 29.4937 142.208 29.4145 142.271 29.3476C142.334 29.2806 142.411 29.2273 142.495 29.1909C142.58 29.1545 142.671 29.1358 142.763 29.136C143.01 29.136 143.205 29.448 143.309 29.851C143.577 29.8225 143.825 29.6971 144.007 29.4984C144.189 29.2997 144.292 29.0414 144.297 28.772C144.341 28.4804 144.272 28.1831 144.106 27.9397C143.94 27.6962 143.688 27.5246 143.4 27.459Z" fill="#1C1C1B"/>
<path d="M142.333 29.2918H142.151V29.6168C141.997 31.0673 141.656 32.4918 141.137 33.8548C141.137 33.8548 141.137 33.9718 141.137 34.0238C140.903 34.6088 140.656 35.1938 140.383 35.7528C138.828 38.523 136.652 40.8948 134.026 42.6818C134.296 42.4691 134.518 42.2016 134.677 41.8968C134.836 41.5921 134.929 41.257 134.949 40.9138C134.846 40.0264 134.641 39.1539 134.338 38.3138C133.723 36.571 133.355 34.7506 133.246 32.9058C133.175 32.1504 133.284 31.3889 133.564 30.6839C133.844 29.9788 134.287 29.3502 134.858 28.8498L135.014 28.7328C135.026 28.6089 135.052 28.4868 135.092 28.3688C134.941 28.4363 134.785 28.4886 134.624 28.5248C134.586 28.5368 134.545 28.5368 134.507 28.5248C134.421 28.541 134.333 28.541 134.247 28.5248C133.008 28.424 131.799 28.0888 130.685 27.5368C129.465 26.9368 128.141 26.5792 126.785 26.4838C126.296 26.4485 125.805 26.5123 125.342 26.6712C124.878 26.8302 124.452 27.081 124.088 27.4088C123.724 27.7365 123.429 28.1344 123.223 28.5786C123.016 29.0228 122.901 29.5041 122.885 29.9938C122.886 30.4011 122.969 30.8041 123.128 31.1791C123.287 31.5541 123.519 31.8937 123.811 32.1781C124.102 32.4624 124.448 32.6859 124.827 32.8354C125.206 32.9849 125.611 33.0574 126.018 33.0488C126.658 33.058 127.283 32.8552 127.796 32.4719C128.308 32.0885 128.68 31.5463 128.852 30.9298C128.941 30.446 128.861 29.9461 128.624 29.5148C128.387 29.0836 128.008 28.7476 127.552 28.5638H127.461V28.6548C127.307 28.9071 127.101 29.1235 126.857 29.2895C126.612 29.4554 126.335 29.567 126.044 29.6168C125.886 29.632 125.726 29.6129 125.576 29.5608C125.426 29.5088 125.289 29.425 125.174 29.3152C125.06 29.2054 124.97 29.0721 124.911 28.9245C124.853 28.7769 124.827 28.6184 124.835 28.4598C124.835 27.3808 125.849 26.8998 126.798 26.8998C128.108 26.9933 129.388 27.3376 130.568 27.9138H130.646C131.508 28.3075 132.41 28.6082 133.337 28.8108C130.945 29.2788 128.579 30.6828 128.579 33.5038C128.579 35.7918 129.879 37.7938 131.101 39.5748C131.9 40.509 132.446 41.6324 132.687 42.8378C132.689 43.1136 132.612 43.3843 132.466 43.6178L132.622 43.9428L132.739 43.8648C135.832 42.0352 138.422 39.4668 140.279 36.3898C140.383 36.1948 140.487 35.9998 140.578 35.8048C140.838 35.2918 141.064 34.7619 141.254 34.2188C141.879 32.6336 142.264 30.9644 142.398 29.2658L142.333 29.2918Z" fill="#1C1C1B"/>
<path d="M50.138 25.6L47.265 43.904C47.2584 43.9568 47.2319 44.0052 47.1908 44.039C47.1497 44.0729 47.0971 44.0897 47.044 44.086H33.004C32.9508 44.0897 32.8983 44.0729 32.8572 44.039C32.8161 44.0052 32.7895 43.9568 32.783 43.904L29.65 25.6C29.6463 25.5688 29.6493 25.5373 29.6587 25.5074C29.6681 25.4775 29.6838 25.45 29.7047 25.4266C29.7256 25.4032 29.7513 25.3846 29.7799 25.3719C29.8086 25.3592 29.8396 25.3528 29.871 25.353H38.854C38.886 25.3504 38.9181 25.3552 38.9479 25.3671C38.9777 25.379 39.0044 25.3977 39.0258 25.4216C39.0472 25.4455 39.0628 25.4741 39.0713 25.505C39.0798 25.536 39.0811 25.5685 39.075 25.6L39.816 36.468C39.8224 36.522 39.8484 36.5717 39.8892 36.6077C39.93 36.6437 39.9826 36.6634 40.037 36.663H40.245C40.3001 36.663 40.353 36.6411 40.3921 36.6021C40.4311 36.563 40.453 36.5101 40.453 36.455L41.116 25.6C41.1176 25.5726 41.1247 25.5459 41.1367 25.5213C41.1487 25.4967 41.1654 25.4747 41.186 25.4566C41.2065 25.4385 41.2304 25.4246 41.2563 25.4157C41.2822 25.4069 41.3096 25.4032 41.337 25.405H49.93C49.983 25.4049 50.034 25.425 50.0726 25.4612C50.1113 25.4975 50.1347 25.5471 50.138 25.6Z" fill="#DA232E"/>
<path d="M69.5604 44.086H61.6304C61.5919 44.0861 61.5539 44.0766 61.5199 44.0585C61.4859 44.0403 61.4568 44.0141 61.4354 43.982L58.2504 39.211C58.2248 39.1733 58.1882 39.1444 58.1456 39.1283C58.103 39.1122 58.0564 39.1097 58.0123 39.121C57.9682 39.1324 57.9286 39.1572 57.8991 39.1919C57.8696 39.2266 57.8516 39.2696 57.8474 39.315V43.865C57.8474 43.9236 57.8241 43.9798 57.7827 44.0213C57.7412 44.0627 57.685 44.086 57.6264 44.086H50.2034C50.1744 44.086 50.1457 44.0803 50.1188 44.0692C50.092 44.0581 50.0677 44.0418 50.0472 44.0213C50.0266 44.0007 50.0104 43.9764 49.9992 43.9496C49.9881 43.9228 49.9824 43.894 49.9824 43.865V25.6C49.9857 25.5437 50.0105 25.4907 50.0516 25.4521C50.0927 25.4134 50.147 25.3919 50.2034 25.392H58.3544C58.3948 25.3905 58.4347 25.4007 58.4693 25.4215C58.504 25.4423 58.5318 25.4727 58.5494 25.509L61.5004 30.54C61.523 30.5827 61.5589 30.6168 61.6028 30.6371C61.6466 30.6574 61.6958 30.6629 61.743 30.6525C61.7902 30.6422 61.8327 30.6167 61.864 30.58C61.8953 30.5432 61.9137 30.4972 61.9164 30.449V25.6C61.9197 25.5437 61.9445 25.4907 61.9856 25.4521C62.0267 25.4134 62.081 25.3919 62.1374 25.392H69.5604C69.6169 25.3919 69.6712 25.4134 69.7123 25.4521C69.7534 25.4907 69.7781 25.5437 69.7814 25.6V43.865C69.7814 43.9236 69.7581 43.9798 69.7167 44.0213C69.6752 44.0627 69.619 44.086 69.5604 44.086Z" fill="#DA232E"/>
<path d="M89.4122 25.6L84.1342 39.64C84.1281 39.6657 84.1281 39.6924 84.1342 39.718V43.826C84.1311 43.8836 84.1068 43.938 84.066 43.9788C84.0252 44.0196 83.9708 44.0439 83.9132 44.047H74.2152C74.1566 44.047 74.1004 44.0237 74.0589 43.9823C74.0175 43.9408 73.9942 43.8846 73.9942 43.826V39.731L68.8592 25.6C68.8465 25.5665 68.8422 25.5303 68.8467 25.4948C68.8511 25.4592 68.8641 25.4252 68.8846 25.3958C68.905 25.3664 68.9323 25.3424 68.9642 25.3258C68.996 25.3093 69.0313 25.3008 69.0672 25.301H78.0502C78.0871 25.2986 78.1241 25.3055 78.1576 25.3211C78.1912 25.3367 78.2203 25.3604 78.2423 25.3902C78.2643 25.4199 78.2785 25.4547 78.2835 25.4914C78.2886 25.5281 78.2843 25.5654 78.2712 25.6L79.0382 31.307C79.0415 31.3599 79.0649 31.4095 79.1035 31.4458C79.1422 31.482 79.1932 31.5021 79.2462 31.502C79.2735 31.5038 79.3009 31.5001 79.3268 31.4913C79.3527 31.4824 79.3767 31.4685 79.3972 31.4504C79.4177 31.4323 79.4345 31.4103 79.4465 31.3857C79.4585 31.3611 79.4655 31.3343 79.4672 31.307L80.2342 25.6C80.2403 25.5482 80.2645 25.5002 80.3025 25.4645C80.3406 25.4288 80.3901 25.4077 80.4422 25.405H89.2042C89.2563 25.4077 89.3058 25.4288 89.3438 25.4645C89.3819 25.5002 89.4061 25.5482 89.4122 25.6Z" fill="#DA232E"/>
</g>
<defs>
<clipPath id="clip0_15566_43525">
<rect width="286" height="26" fill="white" transform="translate(29 23)"/>
</clipPath>
</defs>
</svg>
