<?xml version="1.0" standalone="no"?>
<!DOCTYPE svg PUBLIC "-//W3C//DTD SVG 20010904//EN"
 "http://www.w3.org/TR/2001/REC-SVG-20010904/DTD/svg10.dtd">
<svg version="1.0" xmlns="http://www.w3.org/2000/svg"
 width="80.000000pt" height="80.000000pt" viewBox="0 0 80.000000 80.000000"
 preserveAspectRatio="xMidYMid meet">

<g transform="translate(0.000000,80.000000) scale(0.100000,-0.100000)"
fill="#000000" stroke="none">
<path d="M395 708 c-4 -10 -4 -26 0 -35 8 -17 8 -17 12 0 3 9 3 25 0 35 -4 16
-4 16 -12 0z"/>
<path d="M235 630 c10 -11 20 -20 22 -20 2 0 -1 9 -7 20 -6 11 -16 20 -22 20
-6 0 -3 -9 7 -20z"/>
<path d="M542 630 c-7 -11 -9 -20 -4 -20 4 0 13 9 20 20 7 11 9 20 4 20 -4 0
-13 -9 -20 -20z"/>
<path d="M356 599 c-30 -8 -71 -42 -86 -70 -5 -9 -16 -47 -24 -85 -8 -38 -17
-77 -21 -86 -6 -14 -2 -18 19 -18 23 0 26 -4 26 -38 0 -41 14 -62 41 -62 11 0
19 -9 21 -22 6 -46 23 -21 26 38 3 56 1 63 -23 78 -14 9 -25 23 -25 31 0 8 -4
15 -10 15 -16 0 -12 47 5 54 37 14 60 -24 33 -53 -11 -10 -9 -16 10 -28 19
-14 22 -24 22 -84 0 -39 4 -69 10 -69 17 0 13 237 -5 264 -13 19 -13 25 -1 42
12 15 18 17 33 8 10 -7 16 -20 14 -30 -2 -11 -5 -80 -6 -154 -1 -74 0 -102 2
-61 3 62 7 74 23 78 23 6 25 16 8 42 -9 15 -9 23 1 35 18 21 38 20 50 -2 11
-20 -8 -56 -48 -93 -12 -12 -20 -28 -17 -36 3 -8 6 -35 6 -59 0 -28 4 -43 10
-39 6 3 10 21 10 39 0 19 10 47 25 67 61 83 73 169 32 229 -37 56 -106 85
-161 69z"/>
<path d="M385 491 c-6 -11 9 -23 19 -14 9 9 7 23 -3 23 -6 0 -12 -4 -16 -9z"/>
<path d="M173 463 c9 -2 23 -2 30 0 6 3 -1 5 -18 5 -16 0 -22 -2 -12 -5z"/>
<path d="M593 463 c9 -2 23 -2 30 0 6 3 -1 5 -18 5 -16 0 -22 -2 -12 -5z"/>
<path d="M310 405 c0 -8 5 -15 10 -15 6 0 10 7 10 15 0 8 -4 15 -10 15 -5 0
-10 -7 -10 -15z"/>
<path d="M460 405 c0 -9 5 -15 11 -13 6 2 11 8 11 13 0 5 -5 11 -11 13 -6 2
-11 -4 -11 -13z"/>
<path d="M330 160 c0 -5 18 -10 39 -10 22 0 43 -4 46 -10 4 -6 -10 -10 -34
-10 -23 0 -41 -4 -41 -10 0 -5 25 -10 55 -10 30 0 55 5 55 10 0 6 -6 10 -12
10 -7 0 -5 5 5 11 33 19 17 29 -48 29 -37 0 -65 -4 -65 -10z"/>
</g>
</svg>
