<?xml version="1.0" standalone="no"?>
<!DOCTYPE svg PUBLIC "-//W3C//DTD SVG 20010904//EN"
 "http://www.w3.org/TR/2001/REC-SVG-20010904/DTD/svg10.dtd">
<svg version="1.0" xmlns="http://www.w3.org/2000/svg"
 width="50.000000pt" height="50.000000pt" viewBox="0 0 50.000000 50.000000"
 preserveAspectRatio="xMidYMid meet">

<g transform="translate(0.000000,50.000000) scale(0.100000,-0.100000)"
fill="#000000" stroke="none">
<path d="M145 390 c3 -5 8 -10 11 -10 2 0 4 5 4 10 0 6 -5 10 -11 10 -5 0 -7
-4 -4 -10z"/>
<path d="M197 360 c-25 -20 -39 -51 -52 -117 -5 -26 -3 -33 9 -33 11 0 16 -9
16 -26 0 -17 6 -28 19 -31 11 -3 22 -12 24 -22 3 -9 5 3 6 27 1 30 -5 49 -19
64 -26 28 -25 48 1 48 18 0 20 -4 15 -25 -4 -14 -2 -25 3 -25 6 0 12 -19 14
-42 2 -24 4 -1 3 50 -2 79 0 92 14 89 8 -2 13 -10 11 -18 -3 -8 -7 -36 -9 -63
-4 -47 -4 -48 15 -30 11 11 17 28 15 42 -3 15 1 22 11 22 27 0 28 -17 2 -48
-25 -30 -37 -111 -15 -97 6 3 10 15 10 26 0 11 11 37 25 57 40 59 28 129 -26
158 -38 19 -62 18 -92 -6z"/>
<path d="M210 100 c0 -5 12 -11 28 -11 l27 -1 -30 -8 -30 -8 35 -1 c29 -1 36
3 37 19 1 16 -4 20 -33 20 -19 0 -34 -4 -34 -10z"/>
</g>
</svg>
